<!DOCTYPE svg PUBLIC "-//W3C//DTD SVG 1.1//EN" "http://www.w3.org/Graphics/SVG/1.1/DTD/svg11.dtd">
<!-- Uploaded to: SVG Repo, www.svgrepo.com, Transformed by: SVG Repo Mixer Tools -->
<svg fill="#2463eb" height="112px" width="112px" version="1.1" id="Layer_1" xmlns="http://www.w3.org/2000/svg" xmlns:xlink="http://www.w3.org/1999/xlink" viewBox="0 0 385.76 385.76" xml:space="preserve" stroke="#2463eb" stroke-width="0.0038575600000000003">
<g id="SVGRepo_bgCarrier" stroke-width="0"/>
<g id="SVGRepo_tracerCarrier" stroke-linecap="round" stroke-linejoin="round" stroke="#CCCCCC" stroke-width="2.3145359999999995"/>
<g id="SVGRepo_iconCarrier"> <g> <g> <path d="M377.816,7.492C372.504,2.148,366.088,0,358.608,0H98.544c-15.44,0-29.08,10.988-29.08,26.428v23.724 c0,15.44,13.64,29.848,29.08,29.848h152.924L8.464,322.08c-5.268,5.272-8.172,11.84-8.176,19.34c0,7.5,2.908,14.296,8.176,19.568 L25.24,377.64c5.264,5.272,12.296,8.116,19.796,8.116s13.768-2.928,19.036-8.2l241.392-242.172v151.124 c0,15.444,14.084,29.492,29.52,29.492h23.732c15.432,0,26.752-14.048,26.752-29.492V26.52 C385.464,19.048,383.144,12.788,377.816,7.492z"/> </g> </g> </g>
</svg>